<?xml version="1.0" standalone="no"?><!DOCTYPE svg PUBLIC "-//W3C//DTD SVG 1.1//EN" "http://www.w3.org/Graphics/SVG/1.1/DTD/svg11.dtd"><svg t="1482909589685" class="icon" style="" viewBox="0 0 1024 1024" version="1.1" xmlns="http://www.w3.org/2000/svg" p-id="2051" xmlns:xlink="http://www.w3.org/1999/xlink" width="200" height="200"><defs><style type="text/css"></style></defs><path d="M284.643364 492.949109l-76.287477 0 0 105.222483 81.544201 0c42.951231 0 64.460104-17.96107 64.460104-53.924143C351.709829 512.684592 328.469522 495.600495 284.643364 492.949109zM342.510306 423.25377c-1.774413-28.932959-22.36231-43.850717-61.810764-44.725644l-72.343655 0 0 94.709035 72.343655 0C318.395072 471.485261 339.005482 454.815603 342.510306 423.25377zM580.57533 441.674305c-42.974767 0.874927-64.900126 28.932959-65.774029 84.173075 0.873903 50.858318 22.799262 77.163427 65.774029 78.915327 39.447431-1.7519 59.618842-28.494984 60.493769-80.228229C638.441249 473.675136 618.268814 446.055079 580.57533 441.674305zM511.076466 63.73765c-247.744477 0-448.573435 200.806445-448.573435 448.530456 0 247.768013 200.828958 448.573435 448.573435 448.573435 247.746524 0 448.571389-200.805422 448.571389-448.573435C959.647855 264.545118 758.821967 63.73765 511.076466 63.73765zM293.842887 615.277178 187.305455 615.277178 187.305455 358.792643l99.965759 0c49.982368 2.651386 76.725452 23.678282 80.229253 63.146179-2.626827 30.685883-21.925359 50.420343-57.866942 59.181891 42.952254 7.885598 65.75254 30.248931 68.381413 67.067488C375.386064 592.060407 347.329055 614.401228 293.842887 615.277178zM449.046714 613.9653l-21.049409 0 0-255.171634 21.049409 0L449.046714 613.9653zM577.945433 619.218954c-54.385655-2.626827-82.859149-33.313733-85.487-92.057649 1.730411-65.774029 31.56081-99.505271 89.428775-101.279684 52.612265 3.504824 80.232322 35.96512 82.861196 97.315396C663.872454 586.344219 634.937448 618.34505 577.945433 619.218954zM773.91164 682.344666c-30.707372-0.874927-53.048193-9.199523-67.066465-24.991184l7.884574-10.514471c16.647145 11.391445 35.505655 17.522072 56.553017 18.422581 45.581128 0.853437 67.944462-20.195971 67.067488-63.146179l0-36.81958c-11.388375 30.707372-33.751708 45.163619-67.067488 43.412742-47.352471-1.752924-71.906703-31.124881-73.65758-88.138386 2.626827-60.495816 29.370935-92.057649 80.229253-94.686523 24.553209 0.87595 44.726667 14.039761 60.495816 39.447431l0-35.505655 22.363334 0 0 164.403351C864.218412 654.726655 835.283406 684.098613 773.91164 682.344666zM783.111163 442.989253c-41.22082 1.7519-62.686714 27.619034-64.438615 77.579913 1.7519 47.353494 21.48636 72.344678 59.180867 74.973552 35.942607-5.256724 56.116065-27.15957 60.495816-65.75254l0-28.932959C833.970504 469.294362 815.548946 449.997877 783.111163 442.989253z" p-id="2052"></path></svg>