<?xml version="1.0" standalone="no"?><!DOCTYPE svg PUBLIC "-//W3C//DTD SVG 1.1//EN" "http://www.w3.org/Graphics/SVG/1.1/DTD/svg11.dtd"><svg t="1482834695732" class="icon" style="" viewBox="0 0 1000 1000" version="1.1" xmlns="http://www.w3.org/2000/svg" p-id="5568" xmlns:xlink="http://www.w3.org/1999/xlink" width="200" height="200"><defs><style type="text/css"></style></defs><path d="M446.0539 0C199.7003 0 0 199.7003 0 446.0539 0 692.3077 199.7003 892.008 446.0539 892.008S892.008 692.3077 892.008 446.0539C892.008 199.7003 692.3077 0 446.0539 0zM564.036 444.1558h-77.22277722277722c0 123.4765 0 275.4246 0 275.4246H372.3276723276723c0 0 0-150.4496 0-275.4246h-54.44555444555445v-97.2027972027972h54.44555444555445v-63.03696303696304c0-45.1548 21.3786-115.4845 115.5844-115.4845l84.7153 0.2997v94.40559440559441c0 0-51.5485 0-61.5385 0-9.99 0-24.2757 4.995-24.2757 26.4735v57.24275724275724h87.21278721278722L564.036 444.1558z" p-id="5569"></path></svg>