<?xml version="1.0" standalone="no"?><!DOCTYPE svg PUBLIC "-//W3C//DTD SVG 1.1//EN" "http://www.w3.org/Graphics/SVG/1.1/DTD/svg11.dtd"><svg t="1482909739947" class="icon" style="" viewBox="0 0 1024 1024" version="1.1" xmlns="http://www.w3.org/2000/svg" p-id="1476" xmlns:xlink="http://www.w3.org/1999/xlink" width="200" height="200"><defs><style type="text/css"></style></defs><path d="M169.916413 740.41627c33.172517 30.046317 80.854493 57.014528 126.47246 57.014528 33.172517 0 70.485331-14.514575 70.485331-53.91084 0-43.532469-50.79692-50.78771-107.809401-75.674517-64.269769-27.994588-118.179586-62.193481-118.179586-144.096862 0-106.771769 86.043678-152.378479 192.815447-152.378479 58.052161 0 120.255875 13.483082 164.822906 42.502l0 12.434194-41.464367 81.904405c-29.020964-21.765723-68.420299-36.276205-111.960954-36.276205-38.352493 0-62.193481 15.538905-62.193481 45.604664 0 39.380916 45.616944 47.682999 102.630449 69.449745 78.779228 30.067806 126.461203 63.240323 126.461203 147.198503 0 109.87648-86.034469 157.576875-200.061478 157.576875-72.570829 0-130.62299-19.706831-185.560206-61.164035L126.374734 818.167075 169.916413 740.41627z" p-id="1477"></path><path d="M638.40441 890.697995c0-10.514471 2.084475-296.641117 3.128247-395.519102-28.364001 1.043772-57.854663 1.043772-66.23861 1.043772l1.043772-106.241696c8.42488 0 36.83186 0 64.152089 1.043772 0-4.212952-2.084475-91.518367-2.084475-94.668103 0-118.858038 69.409836-163.05361 159.882384-163.05361 38.918381 0 78.877465 6.319939 118.881574 23.151279l0 15.767102-30.53341 84.154655c-16.811898-9.469676-35.749202-14.724353-52.599985-14.724353-29.447682 0-48.38601 14.724353-48.38601 70.473051 0 18.936281 1.083681 74.686003 1.083681 78.899978 31.53625-1.043772 91.518367-1.043772 99.903338-1.043772l-1.043772 106.241696c-8.426927 0-68.367087 0-99.943246-1.043772 2.12643 98.877985 2.12643 385.004631 2.12643 395.519102L638.40441 890.697995z" p-id="1478"></path></svg>